<svg xmlns="http://www.w3.org/2000/svg" width="96.769" height="96.768">
  <rect width="77.947" height="88.921" x="9.521" y="4.458" ry="15.654" stroke="#000" stroke-width="1.512"/>
  <g fill="#fff">
    <path d="M71.583 60.43c-.337-3.537-1.337-7.232-2.893-10.684a41.182 41.182 0 00-5.503-8.93c-.629-.785-1.267-1.537-1.597-1.884l-.76-.845a9.43 9.43 0 00-.496-.544l-.228-.235a11.474 11.474 0 01-.77-.844c-.103-.115-.214-.23-.338-.36-.161-.166-.345-.352-.508-.56-.02-.026-.042-.051-.064-.078a54.581 54.581 0 01-2.977-3.597c-.989-1.325-1.687-2.42-2.268-3.563a16.573 16.573 0 01-1.493-4.314c-.302-1.418-.478-3.045-.526-4.842-.046-1.595.05-3.128.148-4.407.071-.852.152-1.605.231-2.271a1.594 1.594 0 00-.52-1.38 1.53 1.53 0 00-1.414-.337c-.74.196-1.5.457-2.251.773-1.578.655-3.13 1.566-4.616 2.71-1.895 1.464-3.555 3.272-4.934 5.37-1.692 2.565-2.89 5.582-3.461 8.713-.653 3.447-.58 7.335.201 10.943.743 3.493 2.182 7.06 4.166 10.326 1.048 1.7 2.053 3.122 3.048 4.316.297.375 1.113 1.345 1.122 1.356l.326.38c.228.263.391.461.557.663.154.186.28.34.422.493l.024.026c1.552 1.889 2.647 3.276 3.55 4.503a50.256 50.256 0 012.683 4.002c.859 1.433 1.473 2.685 1.93 3.937a18.767 18.767 0 011.015 4.594c.145 1.431.146 3.036.004 4.897-.143 1.688-.401 3.227-.605 4.354-.152.771-.3 1.483-.436 2.097-.115.52.034 1.066.4 1.448a1.535 1.535 0 001.411.45 16.11 16.11 0 002.125-.575 20.562 20.562 0 004.752-2.316c1.984-1.276 3.774-2.913 5.32-4.86 1.876-2.36 3.34-5.193 4.236-8.19 1.003-3.335 1.346-7.05.987-10.734zM41.149 70.105a18.787 18.787 0 00-2.51-4.076c-.257-.32-.566-.687-.718-.847l-.357-.398a6.221 6.221 0 00-.233-.254l-.097-.1a5.549 5.549 0 01-.377-.412l-.134-.142c-.078-.083-.155-.162-.221-.246a1.35 1.35 0 00-.054-.063 24.702 24.702 0 01-1.339-1.617c-.327-.442-.707-.98-1.042-1.637a7.595 7.595 0 01-.682-1.97 12.35 12.35 0 01-.238-2.207c-.02-.68.018-1.323.048-1.748.04-.56-.216-1.1-.673-1.417a1.531 1.531 0 00-1.542-.121 9.747 9.747 0 00-1.679 1.045 10.062 10.062 0 00-2.25 2.45c-.538.815-1.25 2.169-1.58 3.972-.299 1.577-.267 3.354.09 4.998.34 1.597.996 3.226 1.905 4.723.479.775.937 1.423 1.378 1.953.13.163.41.494.535.642l-.002.002.138.16c.11.125.187.218.262.312.065.081.12.148.173.203l.024.027a50.489 50.489 0 011.623 2.059c.458.618.858 1.215 1.223 1.826.39.65.67 1.22.88 1.792.236.65.392 1.358.464 2.105.066.652.066 1.385.002 2.224a19.7 19.7 0 01-.209 1.608 1.594 1.594 0 00.557 1.497 1.54 1.54 0 001.556.232 9.684 9.684 0 001.58-.837c.906-.58 1.724-1.33 2.435-2.222a11.22 11.22 0 001.932-3.737c.453-1.503.613-3.245.453-4.902-.155-1.615-.612-3.302-1.321-4.877z"/>
  </g>
</svg>